# xmcd
#
# Track frame offsets:
#	150
#	18448
#	34074
#	53243
#	71408
#	87285
#	103648
#	120533
#	138305
#	158616
#	177962
#	197722
#	209700
#	227369
#	240224
#	255135
#	270011
#
# Disc length: 3808 seconds
#
# Revision: 3
# Processed by: cddbd v1.5.2PL0 Copyright (c) Steve Scherf et al.
# Submitted via: dBpowerAMP V4.0
#
DISCID=cf0ede11
DTITLE=Various Artist - Totally Country, Vol. 6
DYEAR=2007
DGENRE=Country
TTITLE0=Brad Paisley - The World
TTITLE1=Faith Hill - Sunshine and Summertime
TTITLE2=Kenny Chesney - Who You'd Be Today
TTITLE3=Carrie Underwood - Don't Forget To Remember Me
TTITLE4=The Wreckers - Leave The Pieces
TTITLE5=Sugarland - Something More
TTITLE6=Gary Allen - Life Ain't Always Beatiful
TTITLE7=Lonestar - Mountains
TTITLE8=Billy Currington - Must Be Doin' Somethin' Right
TTITLE9=Montgomery Gentry - Something To Be Proud Of
TTITLE10=Keith Anderson - Every Time I Hear Your Name
TTITLE11=Blake Shelton - Nobody But Me
TTITLE12=Phil Vassar - Last Day Of My Life
TTITLE13=Gretchen Wilson - California Girls
TTITLE14=Martina McBride - (I Never Promised You A) Rose Garden
TTITLE15=George Strait - She Let Herself Go
TTITLE16=Big and Rich - 8th Of November (Radio Edit)
EXTD=Corrected typos.
EXTT0=
EXTT1=
EXTT2=
EXTT3=
EXTT4=
EXTT5=
EXTT6=
EXTT7=
EXTT8=
EXTT9=
EXTT10=
EXTT11=
EXTT12=
EXTT13=
EXTT14=
EXTT15=
EXTT16=
PLAYORDER=
